.
..............................Site Info...........................

 -   http://www.scenetime.com  *_*   

SceneTime is going to Close sign up on march/1, hurry up! get in before the doors are closed.

     We care to share . Join us on  http://www.scenetime.com 

    Be the first to get new release at  http://www.scenetime.com

        Seed back for speed


...................................NFO:.................................................[IMG]http://lookpic.com/O/i2/76/fPGiN0WA.jpeg[/IMG]
The Adventures of Tintin(2011)(DVDRip)x264-AC3-warhawk

Source                                   : The.Adventures.Of.Tintin.The.Secret.Of.The.Unicorn.2011.PAL.DVDR-REWIND

Encoder                                  : warhawk

General
Unique ID                                : 240164291009354906106091002683892704289 (0xB4ADF5C01E51C9D4B809B88A32B02421)
Complete name                            : D:\The Adventures of Tintin(2011)(DVDRip)x264-AC3-warhawk\The Adventures of Tintin(2011)(DVDRip)x264-AC3-warhawk T80 3_2ch 384Kbps DELAY 0ms.mkv
Format                                   : Matroska
Format version                           : Version 2
File size                                : 1 021 MiB
Duration                                 : 1h 42mn
Overall bit rate                         : 1 392 Kbps
Encoded date                             : UTC 2012-02-23 06:24:19
Writing application                      : mkvmerge v5.3.0 ('I could have danced') built on Feb  9 2012 10:38:07
Writing library                          : libebml v1.2.3 + libmatroska v1.3.0

Video
ID                                       : 2
Format                                   : AVC
Format/Info                              : Advanced Video Codec
Format profile                           : High@L3.0
Format settings, CABAC                   : Yes
Format settings, ReFrames                : 8 frames
Muxing mode                              : Header stripping
Codec ID                                 : V_MPEG4/ISO/AVC
Duration                                 : 1h 42mn
Bit rate                                 : 1 008 Kbps
Width                                    : 720 pixels
Height                                   : 304 pixels
Display aspect ratio                     : 2.35:1
Frame rate                               : 25.000 fps
Color space                              : YUV
Chroma subsampling                       : 4:2:0
Bit depth                                : 8 bits
Scan type                                : Progressive
Bits/(Pixel*Frame)                       : 0.184
Stream size                              : 719 MiB (70%)
Writing library                          : x264 core 120 r2164 da19765
Language                                 : English
Default                                  : Yes
Forced                                   : No

Audio
ID                                       : 1
Format                                   : AC-3
Format/Info                              : Audio Coding 3
Mode extension                           : CM (complete main)
Muxing mode                              : Header stripping
Codec ID                                 : A_AC3
Duration                                 : 1h 42mn
Bit rate mode                            : Constant
Bit rate                                 : 384 Kbps
Channel(s)                               : 6 channels
Channel positions                        : Front: L C R, Side: L R, LFE
Sampling rate                            : 48.0 KHz
Bit depth                                : 16 bits
Compression mode                         : Lossy
Stream size                              : 282 MiB (28%)
Default                                  : Yes
Forced                                   : No
 
http://www.imdb.com/title/tt0983193/

Intrepid reporter Tintin and Captain Haddock set off on a treasure hunt for a sunken ship commanded by Haddock's ancestor.

Jamie Bell, Andy Serkis and Daniel Craig

[IMG]http://lookpic.com/O/i2/649/YMgieEbH.png[/IMG]
[IMG]http://lookpic.com/O/i2/1714/YvrnZ11C.png[/IMG]
[IMG]http://lookpic.com/O/i2/1873/ArQxqgl1.png[/IMG]
[IMG]http://lookpic.com/O/i2/788/uYzLw3cW.png[/IMG]
[IMG]http://lookpic.com/O/i2/397/hscHyesH.png[/IMG]
[IMG]http://lookpic.com/O/i2/1486/upensDRv.png[/IMG]